                   Agathe Cléry 2008 DVDRip Xvid LKRG


RIPPER                           : fasamoo
Format                           : AVI
Format/Info                      : Audio Video Interleave
File size                        : 700 MiB
Duration                         : 1h 47mn
Overall bit rate                 : 914 Kbps
Writing application              : VirtualDubMod 1.5.4.1 (build 2178/release)
Writing library                  : VirtualDubMod build 2178/release
Language                         : French
Subtitles                        : English(*.srt)
Genre                            : Comedy | Musical

Video
ID                               : 0
Format                           : MPEG-4 Visual
Format profile                   : Advanced Simple@L5
Format settings, BVOP            : Yes
Format settings, QPel            : No
Format settings, GMC             : No warppoints
Format settings, Matrix          : Custom
Codec ID                         : XVID
Codec ID/Hint                    : XviD
Duration                         : 1h 47mn
Bit rate                         : 791 Kbps
Width                            : 592 pixels
Height                           : 336 pixels
Display aspect ratio             : 16:9
Frame rate                       : 25.000 fps
Color space                      : YUV
Chroma subsampling               : 4:2:0
Bit depth                        : 8 bits
Scan type                        : Progressive
Bits/(Pixel*Frame)               : 0.159
Stream size                      : 605 MiB (87%)
Writing library                  : XviD 1.2.1 (UTC 2008-12-04)

Audio
ID                               : 1
Format                           : MPEG Audio
Format version                   : Version 1
Format profile                   : Layer 3
Mode                             : Joint stereo
Mode extension                   : MS Stereo
Codec ID                         : 55
Codec ID/Hint                    : MP3
Duration                         : 1h 47mn
Bit rate mode                    : Variable
Bit rate                         : 110 Kbps
Nominal bit rate                 : 128 Kbps
Channel(s)                       : 2 channels
Sampling rate                    : 48.0 KHz
Stream size                      : 84.4 MiB (12%)
Alignment                        : Aligned on interleaves
Interleave, duration             : 24 ms (0.60 video frame)
Interleave, preload duration     : 512 ms
Writing library                  : LAME3.98r
Encoding settings                : -m j -V 4 -q 2 -lowpass 17 --abr 128


                                 PLOT

Agathe Cléry is a hard working and modern marketing manager from a cosmetics company, specialized in clear skin. Her colleagues find her snob, strict, and they know she's a racist. One day though, Agathe is diagnosed to suffer from Addison syndrome, which alters and darkens your skin color. One morning, she wakes up as black as the ones she intensively hated. 

  







                                 IMBD
                     
                    http://www.imdb.com/title/tt1068632/
 
http://leetleech.org/images/30654725751366823051.png 
http://leetleech.org/images/15993660067954073161.png 
http://leetleech.org/images/82835310858776295713.png 
http://leetleech.org/images/85314688489812949536.png 
http://leetleech.org/images/64010801132756722308.png 
http://leetleech.org/images/99468675051966177769.png 
http://leetleech.org/images/70793857826820012602.png
